<svg xmlns="http://www.w3.org/2000/svg" width="222.813" height="327.556" viewBox="0 0 222.813 327.556"><defs><style>.a{fill:#fff;}.b{fill:#85807f;}.c{fill:#211715;}</style></defs><path class="a" d="M140.416,77.717a7.784,7.784,0,0,1,5.617-1.264c3.857.567,5.282,2.749,5.857,4,1.716,3.738.9,10.164-.98,13.992a20.382,20.382,0,0,1-7.661,9.1,14.9,14.9,0,0,1-7.761,1.711l-.215,1.081a30.441,30.441,0,0,1-3.106,7.189c-.618,1.131-1.24,2.182-1.9,3.169.517,2.28.695,3.05,1.157,4.988a27.869,27.869,0,0,0,1.7,5.53c2.6,5.489,8.081,5.781,13.618,7.865-12.471,10.816-28.389,18.246-44.162,19.52-6.033.478-12.218.2-18.032-1.883-6.1-2.183-11.369-5.754-14.761-12.105a13.03,13.03,0,0,0,4.976-3.446s.033-.031.1-.082a29.858,29.858,0,0,1-16.733-8.155c-7.588-7.381-10.82-19.2-12.224-31.456-.81-7.067-1.521-14.75-2.57-22.425,0,0-10.839-33.354,41.153-34.3C143.6,39.665,140.416,77.717,140.416,77.717Z"/><path class="b" d="M140.735,18.8a8.651,8.651,0,0,1,.791.638c7.329,6.692,11.031,14.406,13.545,23.815a48.4,48.4,0,0,1,1.6,14.779c-.265,5.177-.693,16.785-4.2,23.676l-.577-1.255c-.575-1.249-2-3.431-5.857-4a8.1,8.1,0,0,0-4.426.578,7.266,7.266,0,0,1-2.864.71,4.888,4.888,0,0,1-.6.009c-2.847-.212-4.5-1.457-6.416-3.49a30.443,30.443,0,0,1-2.715-3.219h0C117.921,52.425,103.5,47.86,100.374,46.71L90.65,45.558C80.181,48.122,70.822,56.6,65.925,59.7a1.734,1.734,0,0,1-2.575-1.716,9.147,9.147,0,0,0-.411-3.313c-.417-1.369-1.518-1.9-2.324-1.413-6.873,4.127-16.193,18.287-16.943,23.361,0,0-.1.686-.255,1.7A89.863,89.863,0,0,1,42.433,48.3c1.421-8.726,5.356-18.558,10.945-25.372,9.681-11.8,24.3-19.134,42.611-20.36,11.556-.775,23.164,1.172,35.8,9.813Z"/><path class="a" d="M206.276,180.535c5.782,14.067,10.555,31.274,12.379,44.8,2.776,20.55,2.209,38.48-1.847,50.33-4.076,11.92-10.1,20.18-21.61,28.25a9.437,9.437,0,0,1-5.434,1.76c-1.789,0-3.626.11-5.346-1.91l-66.254,17.022c-22.163,5.389-53.346,4.879-70.158-1.514-7.174-3.094-12.478-6.383-16.077-12.052a37.718,37.718,0,0,1-5.393-13.332,49.622,49.622,0,0,1-17.811-9.482C1.668,277.524.948,262.75,4.509,247.223c5.824-25.393,6.611-37.75,10.646-56.646,2.33-10.912,6.5-20.367,15.052-28.273,8.052-7.442,23.29-15.447,39.391-21.619l.194-.076c3.387,6.353,8.655,9.924,14.756,12.107,5.814,2.081,12,2.361,18.032,1.883,15.872-1.282,31.891-8.8,44.4-19.724,16.278,3.864,36.45,11.143,47.788,24.679C198.68,164.229,202.674,171.773,206.276,180.535Z"/><path class="a" d="M13.633,277.14a12.028,12.028,0,0,1,3.484-2.108l10.2-3.866c-.058.319-.111.634-.161.943-2.083,12.981-2.542,23.581,4.778,35.111,2.847,4.484,6.759,7.478,11.82,10.065-.741,1.609-1.388,3.012-1.388,3.012-1.043,2.479-4.506,3.323-7.654,2.59-2.228-.518-8.881-4.957-12.277-8.72a49.778,49.778,0,0,1-7.227-9.8c-2.537-5.078-5.09-10.325-5.559-15.982C9.286,284.063,10.492,279.891,13.633,277.14Z"/><path class="a" d="M167.413,268.614a41.019,41.019,0,0,0-7.873-.449,132.716,132.716,0,0,0-17.389,1.722c-4.883.782-5.208,2.474-5.061,6.057.135,3.265,6.172,5.184,10.341,5.441l2.282.142c-5.417,2.36-10.9,4.6-16.374,5.685-7.381,1.458-9.056,4.313-9.056,6.677,0,1.832,1.427,3.027,3.735,3.431-1.327.169-2.288.294-2.288.294-4.3.559-7.8,2.35-7.555,6.084.238,3.688,4.7,4.074,7.74,4.006-2.276.6-4.163,1.875-4.011,4.784.1,1.969,1.947,4.036,5.03,3.74l7.11-.683-3.4.64c-2.436.458-4.019,2.006-3.988,4.221a4.6,4.6,0,0,0,2.3,3.86c2.493,1,5.5.787,8.11.8a98.976,98.976,0,0,0,17.885-1.463c2.216-.58,5.3-1.488,7.147-2.836,4.384-3.192,21.536-14.972,22.569-19.207,0,0,1.4-.568,3.128-1.27-.484-8.959-3.708-17.811-9.419-27.462a14.419,14.419,0,0,0-4.54-4.754l-3.369,1.6A9.887,9.887,0,0,0,167.413,268.614Z"/><path class="c" d="M16.479,272.718A14.344,14.344,0,0,0,7.538,283.35c-1.1,5.758.69,11.5,2.977,16.74a56.092,56.092,0,0,0,3.872,7.683,57.7,57.7,0,0,0,5.2,6.793,43.292,43.292,0,0,0,11.28,9.2,11.784,11.784,0,0,0,6.4,1.768c2.841-.106,5.894-1.312,7.169-4.027a2.469,2.469,0,0,0-.861-3.283,2.421,2.421,0,0,0-3.284.861c-.666,1.418-2.257,1.713-3.75,1.648-1.681-.072-2.151-.463-3.64-1.336a38.318,38.318,0,0,1-9.274-7.489,49.114,49.114,0,0,1-7.74-11.579c-2.032-4.234-3.979-8.886-3.9-13.667.066-3.963,1.975-7.738,5.77-9.316a2.481,2.481,0,0,0,1.676-2.953,2.415,2.415,0,0,0-2.952-1.676Z"/><path class="c" d="M23.1,308.846a17.051,17.051,0,0,0,6.479,2.113,14.614,14.614,0,0,0,2.253.061,3.76,3.76,0,0,0,2.449-.953,4.337,4.337,0,0,0,1.2-2.015,2.4,2.4,0,1,0-4.629-1.276c-.1.351.111-.193.106-.2.024.039-.315.465-.011.078a.928.928,0,0,1,.432-.308c.115-.049.877-.131.512-.127-.071,0-.142.006-.213.008-.161,0-.322.009-.483.01-.311,0-.622,0-.932-.022-.169-.009-.339-.022-.507-.038-.213-.02-.822-.143,0,.009a15.126,15.126,0,0,1-2.108-.511q-.3-.1-.6-.219c-.071-.027-.4-.165-.057-.018.367.16-.055-.026-.134-.062-.453-.2-.894-.433-1.329-.674a2.4,2.4,0,1,0-2.423,4.145Z"/><path class="c" d="M128.142,118.169c1.028,4.516,1.689,9.687,4.939,13.227,2.775,3.021,6.909,4.021,10.676,5.2a2.4,2.4,0,1,0,1.276-4.629c-1.722-.538-3.462-1.023-5.143-1.682-.41-.161.093.049-.145-.063-.2-.093-.4-.184-.6-.283-.357-.179-.708-.371-1.048-.582-.185-.114-.361-.24-.543-.358-.414-.271.2.207-.2-.155-.3-.272-.6-.54-.878-.841-.127-.139-.253-.28-.371-.428.269.336-.169-.256-.177-.268a10.357,10.357,0,0,1-.674-1.187,16.659,16.659,0,0,1-1.01-2.995c-.543-2.062-1-4.151-1.472-6.23a2.4,2.4,0,0,0-4.629,1.276Z"/><path class="c" d="M139.45,20.791c6.483,5.842,10.486,13.237,12.881,21.561a48.334,48.334,0,0,1,1.941,15.678c-.153,3.352-.351,6.706-.741,10.039-.5,4.24-1.256,8.744-3.215,12.58-1.4,2.746,2.738,5.178,4.145,2.423,3.738-7.321,4.162-16.079,4.566-24.141a57.092,57.092,0,0,0-6.522-29.2,44.724,44.724,0,0,0-9.661-12.33c-2.289-2.063-5.694,1.321-3.394,3.394Z"/><path class="c" d="M99.736,49.024c.974.357,1.946.712,2.908,1.1.075.03.148.061.222.092.3.124-.421-.183-.114-.048.16.07.321.139.481.21q.6.269,1.2.553,1.319.632,2.6,1.343a50.208,50.208,0,0,1,12.448,9.9,61.046,61.046,0,0,1,7.463,10.08c1.589,2.646,5.741.235,4.145-2.423C124.95,59.608,116.158,50.742,105.1,45.99c-1.345-.578-2.71-1.091-4.084-1.594a2.421,2.421,0,0,0-2.952,1.676,2.449,2.449,0,0,0,1.676,2.952Z"/><path class="c" d="M45.986,77.257a12.774,12.774,0,0,1,1.329-3.787,51.848,51.848,0,0,1,3.034-5.333,54.459,54.459,0,0,1,8.373-10.372c.6-.564,1.4-1.263,1.868-1.607a6.021,6.021,0,0,0,1.033-.7c.271-.327,1.015.123-.7-.017-.647-.053-.249-.457-.24.087.008.472.239.973.269,1.464a13.726,13.726,0,0,0,.09,1.965,4.271,4.271,0,0,0,2.861,3.221c2.279.722,4.208-1.021,5.919-2.264,1.764-1.281,3.508-2.588,5.292-3.842,4.96-3.486,10.241-6.7,16.171-8.195,2.993-.755,1.725-5.385-1.277-4.628a50.252,50.252,0,0,0-15.495,7.425c-2.052,1.379-4.044,2.845-6.037,4.308-.8.583-1.589,1.168-2.4,1.732-.326.228-.686.431-1,.678s-.378.075-.184.2c-.13-.084,1.127.145.832.4.153-.131.012-1.182,0-1.348a12.439,12.439,0,0,0-.356-2.176,4.815,4.815,0,0,0-2.933-3.568c-2.42-.8-4.559,1.221-6.25,2.693a54.639,54.639,0,0,0-9.082,10.75,56.164,56.164,0,0,0-3.763,6.349,19.1,19.1,0,0,0-1.99,5.294,2.474,2.474,0,0,0,1.676,2.953,2.419,2.419,0,0,0,2.952-1.676Z"/><path class="c" d="M92.792,89.042c-.688-2.5-.02-8.184,4.688-8.528,6.2.224,6.324,7.123,4.139,10.3C99.83,93.415,94.77,94.367,92.792,89.042Z"/><path class="c" d="M55.933,89.091c-.631-2.508-.02-8.209,4.291-8.554,5.679.225,5.793,7.147,3.792,10.333C62.378,93.479,57.744,94.434,55.933,89.091Z"/><path class="c" d="M75.151,94.806c-.8,1.354-1.561,2.734-2.236,4.153a5.8,5.8,0,0,0-.687,2.264,3.235,3.235,0,0,0,1.1,2.566,5,5,0,0,0,2.066,1.169,11.768,11.768,0,0,0,1.531.2l-.638-.086.061.009a2.643,2.643,0,0,0,1.849-.242,2.4,2.4,0,0,0,.861-3.284,2.307,2.307,0,0,0-1.434-1.1c-.432-.061-.864-.1-1.3-.152l.638.085a2.707,2.707,0,0,1-.612-.161l.574.242a2.91,2.91,0,0,1-.512-.3l.486.375a3.171,3.171,0,0,1-.426-.393l.375.486a.812.812,0,0,1-.089-.15l.242.573a1.185,1.185,0,0,1-.065-.249l.086.638a1.635,1.635,0,0,1,0-.271l-.086.638a2.825,2.825,0,0,1,.19-.655l-.242.573a42.64,42.64,0,0,1,2.4-4.505,2.4,2.4,0,0,0-4.145-2.422Z"/><path class="c" d="M133,10.31A57.564,57.564,0,0,0,103.732.1,69.718,69.718,0,0,0,75.368,4.5,57.152,57.152,0,0,0,53.509,19.12a55.949,55.949,0,0,0-13.075,26.8c-2.171,10.988-1.564,22.9.834,33.8.664,3.016,5.292,1.739,4.628-1.276A82.669,82.669,0,0,1,44.59,49.972c1.214-8.944,4.737-18.314,10.485-25.346,10.954-13.4,28.048-19.714,45.063-19.812a53.077,53.077,0,0,1,30.441,9.641c2.563,1.739,4.968-2.418,2.423-4.145Z"/><path class="c" d="M99.061,74.33a69.265,69.265,0,0,0,6.34,2.855,2.4,2.4,0,0,0,2.71-3.526,2.694,2.694,0,0,0-1.434-1.1c-.423-.154-.84-.32-1.254-.5L106,72.3c-1.531-.649-3.016-1.4-4.514-2.118a2.57,2.57,0,0,0-1.849-.242A2.4,2.4,0,0,0,97.958,72.9a2.365,2.365,0,0,0,1.1,1.434Z"/><path class="c" d="M113.927,85.4a51.127,51.127,0,0,0-.264,6.405c.063,1.895.079,4.2,1.207,5.818a5.953,5.953,0,0,0,6.112,2.207c2.286-.443,3.657-2.258,4.5-4.278a2.4,2.4,0,0,0-1.677-2.952,2.475,2.475,0,0,0-2.952,1.676c.264-.63-.146.231-.244.386-.044.071-.089.139-.138.206.2-.243.237-.3.122-.163-.1.094-.191.2-.285.294-.331.345.393-.187-.045.024-.083.04-.506.186-.178.1.349-.087-.139.016-.215.039-.5.159.489.006-.039.009-.037,0-.5-.023-.518-.006.074-.074.537.109.042-.006-.065-.015-.375-.052-.411-.119q.424.192.183.074a2.379,2.379,0,0,1-.221-.122c-.374-.195.183.222.018.024a2.136,2.136,0,0,1-.178-.178q.281.395.139.171c-.274-.34.058-.1,0,.064a3.3,3.3,0,0,0-.153-.5c-.037-.142-.067-.286-.095-.43-.092-.488-.093-.02,0,.047-.145-.11-.1-1.053-.111-1.245-.056-.837-.079-1.677-.076-2.517.007-1.682.127-3.362.283-5.037a2.409,2.409,0,0,0-2.4-2.4,2.464,2.464,0,0,0-2.4,2.4Z"/><path class="c" d="M143.757,136.594c13.8,3.074,27.764,7.592,39.459,15.745A52.175,52.175,0,0,1,191.043,159a37.719,37.719,0,0,1,5.007,6.431,104.224,104.224,0,0,1,8.517,17.24,185.35,185.35,0,0,1,11.683,42.648,167.361,167.361,0,0,1,1.7,26.188A82.756,82.756,0,0,1,215.31,272.4a52.271,52.271,0,0,1-8.634,17.686,51.508,51.508,0,0,1-7.183,7.491q-2.161,1.872-4.485,3.542a9,9,0,0,1-5.035,2.155c-1.581.047-2.737.029-3.858-1.2-2.084-2.29-5.471,1.112-3.394,3.394,2.965,3.258,8.084,3.227,11.884,1.534a26.945,26.945,0,0,0,5.268-3.57c1.567-1.215,3.092-2.483,4.547-3.831A52.5,52.5,0,0,0,216.9,282c6.383-14.679,6.591-31.151,5.241-46.863a188.531,188.531,0,0,0-10.534-47.362c-4.544-12.71-10.024-26.209-20.433-35.28-11.548-10.064-26.57-15.669-41.238-19.372q-2.443-.617-4.906-1.162c-3.009-.67-4.294,3.957-1.276,4.629Z"/><path class="c" d="M68.205,142.7c6.1,10.225,17.925,14.457,29.374,14.5,11.89.041,23.64-3.442,34.112-8.938A89.094,89.094,0,0,0,148.4,136.806a2.421,2.421,0,0,0,0-3.394,2.448,2.448,0,0,0-3.394,0,80.6,80.6,0,0,1-28.461,16c-10.291,3.2-22.138,4.615-32.4.607a23.394,23.394,0,0,1-11.8-9.733c-1.582-2.65-5.733-.239-4.145,2.423Z"/><path class="c" d="M73.066,135.468a17.512,17.512,0,0,1-2.283,1.978,26.607,26.607,0,0,1-4.5,1.97q-5.119,2.038-10.137,4.325a146.137,146.137,0,0,0-17.939,9.579,60.709,60.709,0,0,0-13.1,10.77,51.032,51.032,0,0,0-9.364,15.781A99.663,99.663,0,0,0,11.5,196.547c-.968,5.054-1.811,10.132-2.645,15.21-1.968,11.987-4.267,23.865-6.866,35.731-1.578,7.205-2.5,14.766-1.7,22.133.646,5.972,2.362,12.131,6.736,16.482,2.193,2.181,5.588-1.211,3.394-3.394-3.292-3.275-4.733-8.127-5.288-12.715a61.276,61.276,0,0,1,.938-18.532c1.257-6.7,2.931-13.326,4.212-20.026,1.006-5.256,1.907-10.531,2.777-15.81.8-4.887,1.594-9.777,2.482-14.65A140.509,140.509,0,0,1,19.13,184.77a48.442,48.442,0,0,1,7.516-15.036,49.566,49.566,0,0,1,12.06-11.008,136.918,136.918,0,0,1,19.021-10.453q5.292-2.45,10.724-4.581a25.067,25.067,0,0,0,5.012-2.27,25.651,25.651,0,0,0,3-2.56c2.267-2.108-1.133-5.5-3.394-3.394Z"/><path class="c" d="M78.553,118.952c.2-.113.413-.216.624-.317.254-.123.1-.028-.067.027.119-.039.236-.09.354-.132a13.592,13.592,0,0,1,1.624-.459c.269-.06.541-.112.813-.158.051-.008.493-.075.2-.034s.155-.016.206-.022a17.427,17.427,0,0,1,1.8-.1c.554,0,1.1.033,1.655.082.272.024.167.025-.041-.011.129.023.259.041.388.064.25.046.5.1.746.162s.47.129.7.208c.049.016.584.223.341.123-.206-.085.215.1.252.116.637.291,1.265.6,1.909.877a2.465,2.465,0,0,0,3.283-.861c.545-1.031.371-2.755-.861-3.283a31.885,31.885,0,0,0-4.258-1.785,16.02,16.02,0,0,0-4.114-.492,16.773,16.773,0,0,0-7.977,1.847,2.424,2.424,0,0,0-.861,3.284,2.451,2.451,0,0,0,3.284.861Z"/><path class="c" d="M168.3,268.312a12.625,12.625,0,0,1,7.21,4.528,36.864,36.864,0,0,1,2.925,4.994c.9,1.687,1.749,3.4,2.527,5.15a49.062,49.062,0,0,1,4.493,19.678c.014,3.088,4.814,3.1,4.8,0a55.16,55.16,0,0,0-5.332-22.508c-1.706-3.769-3.586-7.838-6.272-11.017a17.191,17.191,0,0,0-9.075-5.453c-3-.722-4.283,3.9-1.276,4.628Z"/><path class="c" d="M164.948,208.906c5.438,14.671,8.91,31.211,2.733,46.235a2.415,2.415,0,0,0,1.676,2.952,2.462,2.462,0,0,0,2.953-1.676c6.469-15.736,2.97-33.4-2.733-48.787a2.464,2.464,0,0,0-2.952-1.676,2.42,2.42,0,0,0-1.677,2.952Z"/><path class="c" d="M182.351,300.925c-.183.677.268-.287-.078.206-.142.2-.266.426-.4.634-.342.542.183-.178-.27.351-.264.309-.532.613-.81.909a49.03,49.03,0,0,1-4.076,3.778c-3.189,2.7-6.51,5.171-9.893,7.628-1.392,1.011-2.792,2.01-4.191,3.01A19.441,19.441,0,0,1,158.2,320.1c-5.722,2.134-12.207,2.436-18.26,2.555-1.769.035-3.542.036-5.312.028-1.379-.006-3.426.162-4.662-.584a2.245,2.245,0,0,1-.906-2c.152-1.018,1.22-1.381,2.219-1.595,3.019-.647,1.741-5.275-1.276-4.628-3.181.681-5.784,3.127-5.75,6.535a7.377,7.377,0,0,0,1.756,4.546,7.229,7.229,0,0,0,4.661,2.241,59.243,59.243,0,0,0,11.119.2,104,104,0,0,0,11.156-1.061,26.994,26.994,0,0,0,9.5-2.942,50.774,50.774,0,0,0,4.206-2.947c3.959-2.834,7.892-5.712,11.677-8.775a62.105,62.105,0,0,0,5.557-4.935,11.237,11.237,0,0,0,3.094-4.536c.807-2.986-3.822-4.26-4.628-1.276Z"/><path class="c" d="M147.431,278.985c-2.377-.167-5.524-.833-7.264-2.277a3.768,3.768,0,0,1-.557-.551c.244.311-.258-.525-.125-.244-.029-.061.007-.017,0-.112-.026-.357-.024-.723-.02-1.081,0-.243.015-.486.029-.729.016-.291-.018.034-.025.081.021-.139.051-.275.081-.413.041-.192.094-.583.017-.17a.788.788,0,0,1,.137-.251c.238-.26-.369.429.036-.05.258-.305-.2.084.17-.147.066-.042.554-.305.31-.195a9.491,9.491,0,0,1,2.183-.579c1.7-.311,3.425-.532,5.141-.748,3.68-.463,7.384-.839,11.094-.937,3.317-.088,7.721-.428,10.615,1.163,2.709,1.49,5.133-2.654,2.423-4.145-3.667-2.016-8.253-1.893-12.314-1.833a113.331,113.331,0,0,0-13.276,1.141c-3.418.457-8.2.487-10.368,3.668a8.012,8.012,0,0,0,.42,8.879c2.629,3.064,7.463,4.06,11.293,4.33a2.421,2.421,0,0,0,2.4-2.4,2.446,2.446,0,0,0-2.4-2.4Z"/><path class="c" d="M151.027,278.347a113.249,113.249,0,0,1-14.712,5.679c-4.018,1.132-8.372,1.5-11.706,4.266a7.038,7.038,0,0,0-2.529,7.079,6.175,6.175,0,0,0,4.277,4.011c1.922.624,4.041.259,6.016.081a92.192,92.192,0,0,0,15.459-2.744c2.982-.8,1.717-5.427-1.276-4.629a83.588,83.588,0,0,1-11.81,2.327c-1.658.194-3.321.339-4.987.449-1.086.071-2.746.093-3.1-.839.153.4.07-.844.02-.42s.047-.193.075-.294c.071-.251.284-.65.049-.2.1-.186.2-.363.309-.544.256-.442-.125.074.166-.206.183-.176.355-.358.547-.526a3.626,3.626,0,0,1,.391-.278c3.071-2,7.065-2.187,10.5-3.232a133.228,133.228,0,0,0,14.729-5.831,2.416,2.416,0,0,0,.861-3.284,2.459,2.459,0,0,0-3.283-.861Z"/><path class="c" d="M125.092,295.3c-3.569.5-7.529,1.975-8.9,5.621a6.442,6.442,0,0,0,4,8.441c2.547.97,5.469.812,8.139.612,3.352-.252,6.7-.649,10.03-1.077,3.86-.494,7.726-1.015,11.549-1.747a2.422,2.422,0,0,0,1.676-2.952,2.451,2.451,0,0,0-2.952-1.676c-5.633,1.077-11.356,1.785-17.059,2.36a54.964,54.964,0,0,1-6.771.423,8.118,8.118,0,0,1-3.214-.526,1.36,1.36,0,0,1-1.021-1.118,2.305,2.305,0,0,1,1.136-2.287,10.855,10.855,0,0,1,4.663-1.445,2.416,2.416,0,0,0,1.676-2.953,2.464,2.464,0,0,0-2.952-1.676Z"/><path class="c" d="M150.777,311.979c-6.228.729-12.467,1.49-18.735,1.752q-2.035.086-4.071.1c-1.012.006-2.291.224-3.082-.413a1.523,1.523,0,0,1-.525-1.854c.216-.816.917-1.144,1.789-1.429,2.924-.955,1.672-5.591-1.276-4.629-3.616,1.181-6.273,4.411-5.159,8.394a6.518,6.518,0,0,0,2.985,3.814c1.759,1.018,3.659.931,5.611.915a208.4,208.4,0,0,0,22.463-1.846,2.473,2.473,0,0,0,2.4-2.4,2.416,2.416,0,0,0-2.4-2.4Z"/><path class="c" d="M121.264,127.764a31.047,31.047,0,0,0,10.478-9,44.2,44.2,0,0,0,3.111-5.162,26.764,26.764,0,0,0,2.735-6.629,2.455,2.455,0,0,0-1.677-2.952,2.426,2.426,0,0,0-2.952,1.676,21.81,21.81,0,0,1-2.308,5.59,45.074,45.074,0,0,1-2.906,4.848,26.426,26.426,0,0,1-8.9,7.482c-2.707,1.489-.288,5.636,2.423,4.144Z"/><path class="c" d="M82.86,134.769c-9.837,1.091-19.967-2.649-25.889-10.794-6.024-8.287-7.826-18.826-8.925-28.778-.765-6.934-1.461-13.874-2.4-20.788a2.413,2.413,0,0,0-2.952-1.676,2.465,2.465,0,0,0-1.677,2.952c.861,6.334,1.481,12.7,2.179,19.052a105.287,105.287,0,0,0,2.972,17.108c2.91,10.343,8.671,19.909,18.674,24.672a33.381,33.381,0,0,0,18.018,3.052,2.472,2.472,0,0,0,2.4-2.4,2.415,2.415,0,0,0-2.4-2.4Z"/><path class="c" d="M141.627,79.789a5.985,5.985,0,0,1,7.415.628,3.462,3.462,0,0,1,.234.265c-.027-.032-.193-.265-.045-.049.129.189.251.382.361.582a5.24,5.24,0,0,1,.458,1.2,13.457,13.457,0,0,1,.339,4.442c-.344,5.571-3.438,11.728-8.351,14.621a11.324,11.324,0,0,1-3.55,1.214,8.039,8.039,0,0,1-4.735-.259,2.471,2.471,0,0,0-3.284.861,2.42,2.42,0,0,0,.861,3.284c3.864,1.767,8.333,1.238,12.14-.456,3.52-1.566,6.34-4.8,8.249-8.072a25.092,25.092,0,0,0,3.444-10.82c.274-3.49-.2-7.426-2.645-10.115a10.689,10.689,0,0,0-13.313-1.466c-2.547,1.719-.147,5.879,2.422,4.144Z"/><path class="c" d="M108.9,130.1c-.186.17-.374.338-.566.5-.12.1-.246.2-.366.3-.262.225.317-.229.036-.026-.441.319-.881.633-1.344.92s-.951.563-1.443.814c-.235.12-.472.236-.712.346-.121.056-.244.108-.364.164-.336.158.526-.2-.076.031a25,25,0,0,1-3.272,1.035c-.6.145-1.206.267-1.815.37-.146.025-.293.047-.439.071-.456.075.141-.01-.143.022-.341.04-.681.079-1.023.112a2.453,2.453,0,0,0-2.4,2.4,2.425,2.425,0,0,0,2.4,2.4c5.5-.525,10.788-2.289,14.921-6.067a2.418,2.418,0,0,0,0-3.394,2.453,2.453,0,0,0-3.394,0Z"/><path class="c" d="M45.3,194.177c-3.571,5.489-5.757,11.934-7.33,18.252a67.772,67.772,0,0,0-2.388,18.208c.069,2.2.235,4.771,1.46,6.684,1.662,2.593,5.818.188,4.145-2.423-.074-.116-.132-.245-.208-.359-.286-.429.124.4.006.029s-.233-.732-.316-1.112c-.044-.2-.078-.4-.115-.6-.023-.12-.039-.243-.057-.364,0,.021.054.447.025.16-.054-.521-.1-1.042-.123-1.566a46.905,46.905,0,0,1,.363-7.612,79.925,79.925,0,0,1,4.379-18.089,44.048,44.048,0,0,1,4.3-8.787c1.69-2.6-2.464-5-4.145-2.422Z"/><path class="c" d="M37.079,236.565a118.8,118.8,0,0,0-11.973,33.35c-2.067,11.2-2.843,22.761,1.962,33.38a31.612,31.612,0,0,0,10.2,12.884,46.029,46.029,0,0,0,13.722,6.631c9.87,2.958,20.422,3.882,30.683,4.048A148.6,148.6,0,0,0,118.8,323.1c3-.724,1.73-5.354-1.276-4.628a140.068,140.068,0,0,1-31.044,3.594,125.229,125.229,0,0,1-30.072-2.788c-8.9-2.081-18.121-6.1-23-14.228a35.382,35.382,0,0,1-5-14.841,65.915,65.915,0,0,1,.849-16.172,112.71,112.71,0,0,1,11.961-35.05c1.438-2.731-2.7-5.16-4.145-2.422Z"/></svg>