<svg width="30" height="30" viewBox="0 0 30 30" fill="none" xmlns="http://www.w3.org/2000/svg">
<path d="M24.0125 3.33331H25.6758V4.16665H24.0125V3.33331Z" fill="#66757F"/>
<path d="M1.66663 10V26.6667C1.66663 28.5075 3.15913 30 4.99996 30H25C26.8408 30 28.3333 28.5075 28.3333 26.6667V10H1.66663Z" fill="#CCD6DD"/>
<path d="M25 3.33331H4.99996C3.15913 3.33331 1.66663 4.82581 1.66663 6.66665V10.8333H28.3333V6.66665C28.3333 4.82581 26.8408 3.33331 25 3.33331Z" fill="#DD2E44"/>
<path d="M7.36337 7.27586C6.77837 7.27586 6.3042 6.72086 6.3042 6.03502C6.3042 5.35002 6.77837 4.79419 7.36337 4.79419C7.94753 4.79419 8.4217 5.35002 8.4217 6.03502C8.4217 6.72002 7.94753 7.27586 7.36337 7.27586ZM12.3634 7.27586C11.7784 7.27586 11.3042 6.72086 11.3042 6.03502C11.3042 5.35002 11.7784 4.79419 12.3634 4.79419C12.9475 4.79419 13.4217 5.35002 13.4217 6.03502C13.4217 6.72002 12.9475 7.27586 12.3634 7.27586ZM17.3634 7.27586C16.7784 7.27586 16.3042 6.72086 16.3042 6.03502C16.3042 5.35002 16.7784 4.79419 17.3634 4.79419C17.9475 4.79419 18.4225 5.35002 18.4225 6.03502C18.4217 6.72002 17.9475 7.27586 17.3634 7.27586ZM22.3634 7.27586C21.7784 7.27586 21.3042 6.72086 21.3042 6.03502C21.3042 5.35002 21.7784 4.79419 22.3634 4.79419C22.9475 4.79419 23.4225 5.35002 23.4225 6.03502C23.4217 6.72002 22.9475 7.27586 22.3634 7.27586Z" fill="#292F33"/>
<path d="M22.7625 0.14917C21.6983 0.14917 20.7767 0.817503 20.2675 1.79084C19.7625 0.838337 18.8367 0.14917 17.7625 0.14917C16.6983 0.14917 15.7767 0.817503 15.2675 1.79084C14.7625 0.838337 13.8367 0.14917 12.7625 0.14917C11.6983 0.14917 10.7767 0.817503 10.2675 1.79084C9.76249 0.838337 8.83666 0.14917 7.76249 0.14917C6.15082 0.14917 4.84583 1.665 4.84583 3.48667C4.84583 5.03167 5.71666 6.29584 6.98666 6.75834C7.61916 6.9875 8.00666 6.38584 7.95249 5.90334C7.90666 5.50334 7.64083 5.2425 7.34499 5.055C6.94083 4.79917 6.51166 4.215 6.51166 3.49084C6.51166 2.57084 7.07083 1.745 7.76166 1.745C8.45249 1.745 9.01166 2.49917 9.01166 3.3325H9.85833C9.85582 3.38417 9.84499 3.43334 9.84499 3.48584C9.84499 5.03084 10.7158 6.295 11.9858 6.7575C12.6183 6.98667 13.0058 6.385 12.9517 5.9025C12.9058 5.50334 12.64 5.2425 12.3442 5.055C11.94 4.79917 11.5108 4.215 11.5108 3.49084C11.5108 2.57084 12.07 1.745 12.7608 1.745C13.4517 1.745 14.0125 2.5 14.0125 3.33334H14.8592C14.8567 3.385 14.8458 3.43417 14.8458 3.48667C14.8458 5.03167 15.7167 6.29584 16.9867 6.75834C17.6192 6.9875 18.0067 6.38584 17.9525 5.90334C17.9067 5.50417 17.6408 5.24334 17.345 5.05584C16.9408 4.8 16.5117 4.21584 16.5117 3.49167C16.5117 2.57167 17.0708 1.74584 17.7617 1.74584C18.4525 1.74584 19.0125 2.5 19.0125 3.33334H19.8592C19.8567 3.385 19.8458 3.43417 19.8458 3.48667C19.8458 5.03167 20.7167 6.29584 21.9867 6.75834C22.6192 6.9875 23.0067 6.38584 22.9525 5.90334C22.9067 5.50417 22.6408 5.24334 22.345 5.05584C21.9408 4.8 21.5117 4.21584 21.5117 3.49167C21.5117 2.57167 22.0708 1.74584 22.7617 1.74584C23.4525 1.74584 24.0125 2.5 24.0125 3.33334H25.6758C25.6583 1.66667 24.3625 0.14917 22.7625 0.14917Z" fill="#66757F"/>
<path d="M9.16667 12.5H12.5V15.8333H9.16667V12.5ZM13.3333 12.5H16.6667V15.8333H13.3333V12.5ZM17.5 12.5H20.8333V15.8333H17.5V12.5ZM21.6667 12.5H25V15.8333H21.6667V12.5ZM5 16.6667H8.33333V20H5V16.6667ZM9.16667 16.6667H12.5V20H9.16667V16.6667ZM13.3333 16.6667H16.6667V20H13.3333V16.6667ZM17.5 16.6667H20.8333V20H17.5V16.6667ZM21.6667 16.6667H25V20H21.6667V16.6667ZM5 20.8333H8.33333V24.1667H5V20.8333ZM9.16667 20.8333H12.5V24.1667H9.16667V20.8333ZM13.3333 20.8333H16.6667V24.1667H13.3333V20.8333ZM17.5 20.8333H20.8333V24.1667H17.5V20.8333ZM21.6667 20.8333H25V24.1667H21.6667V20.8333ZM5 25H8.33333V28.3333H5V25ZM9.16667 25H12.5V28.3333H9.16667V25ZM13.3333 25H16.6667V28.3333H13.3333V25Z" fill="white"/>
</svg>
