<svg width="30" height="30" viewBox="0 0 30 30" fill="none" xmlns="http://www.w3.org/2000/svg">
<rect width="30" height="30" rx="4" fill="#438ABA"/>
<rect x="1.875" y="1.875" width="26.25" height="26.25" rx="4" fill="#81C5EB"/>
<path d="M22.5 11.25C22.5 10.2651 22.306 9.28982 21.9291 8.37987C21.5522 7.46993 20.9997 6.64314 20.3033 5.9467C19.6069 5.25026 18.7801 4.69781 17.8701 4.3209C16.9602 3.94399 15.9849 3.75 15 3.75C14.0151 3.75 13.0398 3.94399 12.1299 4.3209C11.2199 4.69781 10.3931 5.25026 9.6967 5.9467C9.00026 6.64314 8.44781 7.46993 8.0709 8.37987C7.69399 9.28982 7.5 10.2651 7.5 11.25L15 11.25H22.5Z" fill="white"/>
<path d="M15 4.6875L15.8119 9.60938H14.1881L15 4.6875Z" fill="#EE4F4F"/>
<circle cx="15" cy="9.375" r="0.9375" fill="#EE4F4F"/>
</svg>
